<?xml version="1.0" encoding="UTF-8"?>
<svg id="Layer_1" data-name="Layer 1" xmlns="http://www.w3.org/2000/svg" viewBox="0 0 24.94 28.36">
  <path d="M.5,6.35c.18,2.49,1.04,4.87,2.49,6.9.47.6,1.04,1.12,1.68,1.54.65.37,1.37.63,2.11.77,2.37.32,4.79-.09,6.92-1.18-.17-2.49-1.04-4.88-2.49-6.9-.47-.6-1.04-1.12-1.68-1.54-.65-.37-1.37-.63-2.11-.77-2.37-.32-4.79.09-6.92,1.18Z" style="fill: none; stroke: #17353c; stroke-linecap: round; stroke-linejoin: round;"/>
  <path d="M14.2,2c0-.28-.22-.5-.5-.5s-.5.22-.5.5h1ZM13.2,8.97c0,.28.22.5.5.5s.5-.22.5-.5h-1ZM13.2,27.86c0,.28.22.5.5.5s.5-.22.5-.5h-1ZM14.2,8.97c0-.28-.22-.5-.5-.5s-.5.22-.5.5h1ZM13.77,11.39c-.27-.03-.52.16-.56.43-.03.27.16.52.43.56l.06-.5.06-.5ZM20.25,10.77l.22.45s.01,0,.02,0l-.24-.44ZM22.04,9.43l.36.35s.01-.01.02-.02l-.37-.33ZM23.3,7.53l.45.22s0,0,0-.01l-.46-.2ZM24.36.59l.5-.06c-.03-.23-.21-.41-.43-.44l-.06.5ZM17.81,1.7l-.22-.45s-.01,0-.02,0l.24.44ZM16.02,3.05l-.36-.35s-.01.01-.02.02l.37.33ZM14.75,4.94l-.45-.22h0s.45.22.45.22ZM13.21,8.93c-.02.28.19.52.46.54.28.02.52-.19.54-.46l-.5-.04-.5-.04ZM13.7,2h-.5v6.97h1V2h-.5ZM13.7,27.86h.5V8.97h-1v18.89h.5ZM13.7,11.88l-.06.5c2.34.29,4.72-.11,6.83-1.16l-.22-.45-.22-.45c-1.94.96-4.11,1.33-6.26,1.06l-.06.5ZM20.25,10.77l.24.44c.7-.38,1.35-.86,1.91-1.43l-.36-.35-.36-.35c-.49.5-1.06.92-1.67,1.25l.24.44ZM22.04,9.43l.37.33c.54-.61.99-1.29,1.34-2.02l-.45-.22-.45-.22c-.31.65-.71,1.25-1.19,1.79l.37.33ZM23.3,7.53l.46.2c.99-2.26,1.37-4.74,1.09-7.2l-.5.06-.5.06c.26,2.28-.09,4.58-1.01,6.68l.46.2ZM24.36.59l.06-.5c-2.34-.29-4.72.11-6.83,1.16l.22.45.22.45c1.94-.96,4.11-1.33,6.26-1.07l.06-.5ZM17.81,1.7l-.24-.44c-.7.38-1.35.86-1.91,1.43l.36.35.36.35c.49-.5,1.06-.92,1.67-1.25l-.24-.44ZM16.02,3.05l-.37-.33c-.54.6-.99,1.28-1.34,2.02l.45.22.45.22c.31-.65.71-1.25,1.19-1.78l-.37-.33ZM14.75,4.94l-.45-.21c-.61,1.32-.99,2.74-1.09,4.2l.5.04.5.04c.1-1.33.44-2.64,1-3.85l-.45-.21Z" style="fill: #17353c;"/>
</svg>