<?xml version="1.0" encoding="UTF-8"?>
<svg id="Layer_1" data-name="Layer 1" xmlns="http://www.w3.org/2000/svg" viewBox="0 0 24.92 26.62">
  <path d="M3.16,9.97c0-1.87.54-3.7,1.57-5.26,1.01-1.55,2.47-2.77,4.17-3.49,2.28-.96,4.84-.96,7.12,0,1.71.72,3.16,1.94,4.18,3.49,2.08,3.18,2.09,7.29.03,10.48l4.19,7.47-4.42-.85-1.41,4.32-3.89-6.96c-1.47.37-3,.37-4.47,0l-3.89,6.96-1.41-4.32-4.42.86,4.19-7.47c-1.01-1.56-1.54-3.37-1.54-5.22h0Z" style="fill: none; stroke: #17353c; stroke-linecap: round; stroke-linejoin: round;"/>
  <path d="M12.02,6.18c.08-.17.25-.27.44-.27s.36.11.44.27l.91,1.79c.07.14.19.23.34.26l1.9.38c.17.04.31.17.37.34.06.17.02.36-.1.49l-1.36,1.54c-.1.11-.14.25-.12.4l.25,2.08c.03.18-.05.36-.2.47-.15.11-.35.12-.51.04l-1.71-.87c-.14-.07-.3-.07-.44,0l-1.71.87c-.16.08-.36.07-.51-.04-.15-.11-.23-.29-.2-.47l.25-2.08c.02-.14-.03-.29-.12-.4l-1.36-1.54c-.12-.14-.16-.33-.1-.5.06-.17.21-.3.38-.34l1.9-.38c.15-.03.27-.13.34-.26l.91-1.79Z" style="fill: none; stroke: #17353c; stroke-linecap: round; stroke-linejoin: round;"/>
  <path d="M5.11,14.92c-.15-.23-.46-.3-.69-.15-.23.15-.3.46-.15.69l.42-.27.42-.27ZM5.89,16.67l.36-.35h0s-.36.35-.36.35ZM9.69,19.02l.15-.48h0s-.15.48-.15.48ZM10.11,19.66c.27.07.54-.1.61-.36.07-.27-.1-.54-.36-.61l-.12.48-.12.48ZM20.64,15.46c.15-.23.09-.54-.15-.69-.23-.15-.54-.09-.69.15l.42.27.42.27ZM19.03,16.67l-.36-.35h0s.36.35.36.35ZM15.22,19.02l-.15-.48h0s.15.48.15.48ZM14.56,18.69c-.27.07-.43.34-.36.61.07.27.34.43.61.36l-.12-.48-.12-.48ZM4.69,15.19l-.42.27c.37.56.79,1.08,1.26,1.56l.36-.35.36-.35c-.42-.43-.8-.9-1.13-1.4l-.42.27ZM5.89,16.67l-.36.35c1.12,1.14,2.49,1.99,4.01,2.47l.15-.48.15-.48c-1.36-.43-2.6-1.2-3.6-2.22l-.36.35ZM9.69,19.02l-.15.48c.19.06.38.11.57.16l.12-.48.12-.48c-.17-.04-.34-.09-.51-.14l-.15.48ZM20.22,15.19l-.42-.27c-.33.51-.71.98-1.13,1.4l.36.35.36.35c.47-.48.89-1,1.26-1.56l-.42-.27ZM19.03,16.67l-.36-.35c-1,1.02-2.24,1.78-3.6,2.22l.15.48.15.48c1.52-.48,2.89-1.33,4.01-2.47l-.36-.35ZM15.22,19.02l-.15-.48c-.17.05-.34.1-.51.14l.12.48.12.48c.19-.05.38-.1.57-.16l-.15-.48Z" style="fill: #17353c;"/>
</svg>