<?xml version="1.0" encoding="UTF-8"?>
<svg id="Layer_1" data-name="Layer 1" xmlns="http://www.w3.org/2000/svg" viewBox="0 0 25.29 38.9">
  <path d="M20.09,38.9l-5.89-.52s-.4-1.29-.46-1.96c-.08-.78-.07-1.56-.06-2.36,0-.7-.77-3.89-1.37-3.97-1.21-.17-2.44-.1-3.64-.36-.7-.17-1.88-1-1.88-1,0,0-1.11-1.72-.79-2.2.51-.75,1.37-.83,2.13-.88.91-.09,1.9-.16,2.78-.14.77-.03,1.72.02,2.43-.43.73-.46-1.4-10.55-1.4-10.55l4.61,2.08s2.89,8.07,3.43,8.32c.52.24,1.12.27,1.7.34,1.08.13,2.17.13,3.17.59,1.26.52-.61,4.41-.61,4.41,0,0-2.62.41-3.92.26-.5-.05-.24,8.37-.24,8.37h0Z" style="fill: #17353c;"/>
  <path d="M6.53,21.21l-.19-.83c-.15-.63-3.86,1.5-5.48-.28-1.05-1.15-1.16-3.98-.18-5.32.9-1.23,2.38-1.96,3.59-2.91-1.22-.71-2.74-1.41-3.23-2.98C.23,6.35,2.35,3.44,5.09,3.33c1.49-.06,2.77,1.19,4,1.91.72-1.37.88-3.23,2.19-4.12C12.82.08,15.77-.38,17.51.37c2.16,1.95,1.55,5.36.07,7.77l1.56,2.3c.83,1.22,1.08,2.63.4,4.05-.52,1.08-1.88,2.03-3.44,2.15-1.41.1-2.69-.67-4.02-1.45-1.19,3.8-2.65,3.27-2.2,5.37.2.93-.33,1.95-1.13,2.17-.99.27-1.95-.35-2.22-1.52h0ZM6.36,18.93c.8-1.29.12-3,1.68-3.83l1.51,3.48,2.23-4.48,2.76,1.52c.89.49,2.34.22,3.23-.32.75-.46,1.57-1.58,1.36-2.77-.29-1.65-1.51-2.94-2.64-4.15,1.56-2.15,2.38-5.14.71-7.37-1.59-.29-4.15-.32-5.49.78-1.35,1.11-1.3,2.93-2.18,4.67l-2.74-1.81c-1.49-.98-3.05-.55-4.18.77-.61.71-1.03,1.67-1,2.59.02.79.74,1.81,1.5,2.27l2.62,1.58c-1.65,1.27-3.06,1.88-4.33,3.27-.9.98-.9,3.9.29,4.58,1.21.69,4.02.24,4.67-.77h0Z" style="fill: #17353c;"/>
  <path d="M11.91,11.34c-1.14.51-2.57.23-3.02-.96-.43-1.16-.3-2.72,1.11-3.16.84-.26,2.46-.08,2.84.68.73,1.49.19,2.94-.93,3.44Z" style="fill: #17353c;"/>
</svg>