<?xml version="1.0" encoding="UTF-8"?>
<svg id="Layer_1" data-name="Layer 1" xmlns="http://www.w3.org/2000/svg" viewBox="0 0 22 46">
  <path d="M18.13,34.02c-2.51-3.04.69-7.98.69-7.98l-4.19.1-.45-3.25c2.89-1.75,2.98-3.65,2.69-6.71-1.75.52-2.48,1.54-3.51,2.83l-1.02-3.3c-.56-.08-1.49,0-1.92.21l.12,1.89-.95.11.46-3.24c1.4.55,3.44.31,5.12.19,2.69-.18,1.7-4.8,1.3-6.28-.28-1.02-1.26-1.6-2.4-1.73.22-1.35,1.15-4.15-.57-4.89-2.23-.97-3.78,2.36-4.87,3.81C7.93,3.5,6.74,1.45,4.48.32,3.32-.26,1.44.04.28.53c-.48,1.1-.12,2.36.07,3.47.47,2.83,2.6,2.34,4.2,4.18l-2.55-.1c-.82-.03-1.67.44-1.67,1.27C.33,10.9,0,13.23,1.97,13.07l1.56-.13c-.56.77-3.74,3.29-2.89,4.31.54.65,1.93.73,2.77.31l2.13-1.07-.14,2.54c-2.17.89-4.06,2.14-5.4,4.01.4.5,1.14.57,1.77.68,3.47.58,6.58-.15,9.5-2.15l.6,4.65-3.48.09.34,1.98c.23,1.35-.13,2.72-1.01,3.82-1.85,2.34-5.73,4.19-6.99,7.36-.77,1.94-.97,3.54,2.78,5.32,3.76,1.77,11.55,1.65,16-.63,4.45-2.28,2.25-5.71-1.39-10.13ZM7.69,8.92c1.01.12,1.86.95,1.86,1.81,0,.88-.81,1.76-1.78,2.07-.43.14-1.1-.22-1.35-.5-.82-.9.37-2.7,1.26-3.38ZM12.36,26.21l-.79-5.53c-3.32,2.46-6.94,3.28-10.79,2.22,1.39-1.57,2.78-2.45,4.59-3.26l.51,1.22c.11.26.58.65.87.65,1.43.04,2.2-1.75,2.61-2.85l1.88-.34-.27-1.46c-.04-.23.29-.65.55-.63.19.02.56.3.61.48l.66,2.58c.47,1.84,1.86-1.73,3.48-2.3.65,2.37-.42,4.56-2.71,5.58l.54,3.6-1.73.04Z" style="fill: #17353c;"/>
</svg>