<?xml version="1.0" encoding="UTF-8"?>
<svg id="Layer_1" data-name="Layer 1" xmlns="http://www.w3.org/2000/svg" xmlns:xlink="http://www.w3.org/1999/xlink" viewBox="0 0 68 37">
  <defs>
    <clipPath id="clippath">
      <rect width="68" height="37" style="fill: none;"/>
    </clipPath>
  </defs>
  <g style="clip-path: url(#clippath);">
    <g>
      <path d="M21.94,37c-2.26,0-2.35-.31-2.4-.47-.06-.2.05-.37.32-.52h.02c1.6-.73,5.73-2.49,9.37-4.04.32-.14.64-.27.95-.41-.1.03-.2.07-.3.1-3.68,1.25-7.49,2.53-10.62,3.57-.62.2-1.17.02-1.41-.46-.32-.58-.53-1.51-.21-2.16.39-.77,1.19-1.08,1.96-1.38.26-.1.53-.21.77-.33.62-.27,1.32-.56,2-.85,1.32-.55,2.69-1.12,3.6-1.6l.04-.02c.23-.09,1.15-.76,1.49-1.14-1.33.37-3.03.93-4.67,1.49-1.13.38-2.2.73-3.16,1.03-.17.05-.32.11-.48.16-.91.3-1.51.5-1.97.25-.59-.34-.72-1.09-.76-1.62-.05-.64.27-1.18.9-1.51,1.19-.57,2.94-1.34,4.64-2.09,1.4-.62,2.85-1.26,3.98-1.78.55-.26.64-.5.63-.53,0,0-.03-.03-.1-.05h-.03c-.09-.04-.52-.02-1.52.33-1.29.41-2.72.87-4.19,1.35-2.38.77-4.84,1.56-6.96,2.22l-.73.21c-3.47.99-7.07,2.02-10.74,2.03-1.07-.04-1.96-.95-2.25-1.8-.25-.7-.11-1.35.38-1.77l.03-.02c1.09-.67,2.53-1.36,4.06-2.09.95-.45,1.93-.93,2.85-1.4.25-.13.49-.25.72-.36.39-.19.82-.4,1.06-.55-.11-.02-.27-.04-.51-.07-.77-.07-1.69-.07-2.57-.06-.58,0-1.19,0-1.73-.01h0c-2,0-2.31-1.66-2.61-3.27-.03-.14-.05-.28-.08-.42v-.02c-.02-.17-.08-.41-.15-.69-.26-1.07-.61-2.54.35-2.88h.06c.83-.1,1.72.26,2.59.62.38.16.75.31,1.09.41h.02c1.01.39,2,.66,2.97.92.49.13,1.01.27,1.52.43,4.92,1.33,9.91,1.39,15.02,1.33.53-.07.73-.17.81-.22-.15-.16-.81-.44-1.66-.46-1.56-.12-2.87-.05-4.25.02-.32.02-.65.03-.99.05-.27,0-.56.02-.86.04-.86.05-1.74.11-2.31-.08-.56-.14-1.19-.63-1.04-2.11.02-.16.03-.33.05-.51.06-.75.13-1.59.61-1.99.2-.17.45-.24.74-.21,1.21.07,3.94.29,7.09.54,4.14.33,9.15.73,11.79.87-.34-.12-.72-.25-1.04-.35l-.09-.03c-1.47-.41-2.77-.57-4.15-.74-.39-.05-.77-.09-1.17-.15-1.27-.16-2.89-.37-4.46-.57-1.43-.18-2.81-.36-3.85-.49h-.02c-.38-.08-.86-.12-1.37-.16-1.24-.09-2.65-.19-3.29-1.04-.32-.43-.42-1-.27-1.71.16-.65.7-.93,1.58-.87,1.12.12,2.52.23,4.01.34,2.63.2,5.62.43,7.75.8.87.18,2.27.47,3.89.81,2.56.54,5.68,1.2,7.53,1.56-3.11-2.35-7.22-3.06-11.21-3.75-.29-.05-.57-.1-.85-.15-1.33-.22-2.77-.5-4.18-1.07-.07-.03-7.18-3.02-7.21-4.69,0-.21.09-.51.54-.7h.02c.36-.12.83-.06,1.48.02.21.03.43.06.68.08,2.13.26,5.27.64,8.05.98,2.31.28,4.37.53,5.42.66,2.45.29,4.36.67,6.02,1.2,1.61.52,3.63,1.32,5.01,2.92.3.31.56.68.81,1.04.41.59.8,1.16,1.36,1.42.58.21,1.2-.04,1.86-.3.37-.15.75-.3,1.13-.37,2.09-.46,4.31-.08,6.23,1.08.6.38,1.99,1.14,2.01,1.15l.51.28-.55.21s-1.29.49-1.98.77c-.44.19-.88.44-1.36.69-.25.14-.51.27-.76.4l-.1.05c-1.48.72-3.31,1.61-3.53,3.31-.2,1.24.1,2.81.42,4.47.46,2.4.98,5.11.03,7.33-2.47,5.25-14.65,8.28-19.14,9.01h-.06c-2.15.19-4.82.37-7.32.48-.64.03-1.17.04-1.62.04h0ZM20.34,36.38c.59.08,1.83.11,3.2.04,2.49-.12,5.15-.29,7.29-.47h.03c6.12-.99,16.62-4.23,18.73-8.7.88-2.06.4-4.58-.07-7.01-.33-1.71-.64-3.32-.42-4.65.25-1.98,2.23-2.94,3.82-3.71l.1-.05c.25-.13.5-.26.75-.4.46-.25.94-.5,1.4-.71.41-.17,1.02-.41,1.46-.58-.47-.26-1.14-.64-1.53-.88-1.8-1.09-3.87-1.45-5.84-1.01-.34.06-.68.2-1.03.34-.73.29-1.48.59-2.26.3h-.02c-.7-.34-1.15-.99-1.58-1.62-.25-.36-.48-.7-.75-.97h-.01c-1.3-1.52-3.23-2.28-4.78-2.78-1.62-.52-3.5-.89-5.91-1.17-1.05-.13-3.12-.38-5.42-.66-2.79-.34-5.93-.72-8.05-.98-.25-.03-.48-.06-.69-.08-.55-.07-.99-.13-1.24-.06-.14.06-.21.13-.21.19.02.98,5.22,3.56,6.87,4.2,1.37.56,2.76.83,4.07,1.04.29.05.57.1.86.15,4.32.75,8.79,1.53,12.07,4.36l.05.04.02.06c.04.11.03.23-.04.32-.12.15-.32.15-.51.13h-.02c-1.72-.33-5.26-1.07-8.09-1.67-1.62-.34-3.01-.64-3.88-.81-2.1-.37-5.08-.59-7.69-.79-1.49-.11-2.9-.22-4.02-.34-.78-.06-.95.21-1.01.45-.11.55-.06.96.17,1.27.49.65,1.77.74,2.9.82.52.04,1.01.07,1.43.16,1.03.13,2.41.31,3.83.49,1.57.2,3.19.41,4.46.57.39.05.78.1,1.16.15,1.4.17,2.73.34,4.24.76l.11.03c1.61.53,2.18.75,2.24,1.13l.05.32h-.32c-2.07-.05-7.84-.51-12.93-.92-3.15-.25-5.87-.47-7.09-.54-.15-.01-.26.01-.35.09-.3.26-.37,1.01-.42,1.62-.02.18-.03.36-.05.52-.13,1.34.45,1.49.65,1.53h.02c.47.17,1.34.11,2.12.06.31-.02.6-.04.87-.04.33-.01.66-.03.98-.05,1.4-.07,2.72-.14,4.31-.02.89.02,2.16.38,2.19.99.03.52-.73.68-1.31.76h-.03c-4.95.06-10.2,0-15.19-1.35-.51-.15-1.02-.29-1.51-.42-.97-.26-1.98-.53-3.01-.93-.37-.11-.76-.27-1.13-.42-.79-.32-1.6-.65-2.29-.6-.47.21-.16,1.48.02,2.24.07.29.13.55.16.74.03.14.05.28.08.42.34,1.81.6,2.83,2.09,2.83h0c.54.02,1.11.02,1.72.01.9,0,1.83-.01,2.62.06.73.06.95.17,1.07.31.06.07.09.16.08.25,0,.32-.38.51-1.52,1.07-.22.11-.46.22-.71.35-.92.48-1.9.95-2.86,1.41-1.5.72-2.93,1.4-3.99,2.05-.41.37-.31.89-.21,1.17.27.77,1.06,1.42,1.76,1.44,3.59-.01,7.15-1.03,10.59-2.01l.73-.21c2.11-.66,4.57-1.45,6.95-2.22,1.47-.48,2.91-.94,4.19-1.34,1.41-.49,1.75-.38,1.88-.33.28.09.45.27.47.52.03.37-.31.75-.94,1.06-1.13.52-2.59,1.16-3.99,1.78-1.69.74-3.44,1.51-4.61,2.08-.43.22-.64.56-.6.98.06.65.22,1.04.49,1.2.25.13.81-.06,1.53-.29.15-.05.31-.1.48-.16.95-.29,2.02-.65,3.15-1.03,1.7-.57,3.47-1.16,4.83-1.53h.05c.47-.05.59.17.62.31.13.61-1.6,1.71-1.93,1.87-.93.5-2.31,1.07-3.64,1.63-.7.29-1.37.57-1.97.83-.25.12-.53.23-.8.34-.71.28-1.38.54-1.68,1.12-.22.45-.06,1.2.21,1.68.18.36.63.25.76.2,3.12-1.04,6.93-2.33,10.61-3.57,2.16-.73,4.27-1.45,6.16-2.08.29-.1.34-.11.39-.12l1.81-.26-1.66.77c-.67.31-3.59,1.56-6.97,2.99-3.48,1.48-7.4,3.16-9.13,3.92h0ZM52.4,9.87c-.28,0-.56-.04-.78-.09-.37-.09-.83-.28-.94-.66v-.04s-.01-.04-.01-.04c0-.26.28-.4.38-.45.48-.22,1.1-.25,1.6-.07.38.14.67.39.82.71l.04.09-.05.19-.04.05c-.22.23-.61.3-1.01.3h0ZM51.29,9.07c.09.06.23.13.46.19.45.11.87.09,1.11.02-.12-.13-.27-.21-.39-.25-.36-.13-.84-.12-1.18.04h0Z"/>
      <path d="M66.56,20.55c-1.02.3-2.1.22-3.07-.2-.99-.43-1.71-1.2-2.12-2.23-1.09,1.05-2.96,1.57-4.42,1.49-.54-.03-1.39-.19-1.52-.77-.03-.15.03-.36.14-.52.57-.76,1.79-1.15,2.69-1.52l-1.29-.09c-1.27-.09-3.61-.3-4.44-1.29-.25-.29-.21-.68.07-.94.68-.62,2.12-.69,3.02-.64,1.35.06,2.62.4,3.89.94l-.66-.94c-.15-.21-.24-.48-.28-.73-.2-1.19,1.99-1.49,3.37-.77.72.37.94,1.01.56,1.73-.25.47-.63.83-1,1.22,1.42-.55,3.08-1.08,4.56-.88.37.05,1.06.23,1.06.64,0,.1-.06.26-.16.34-.78.69-2.27.76-3.33.85,1.31.38,3.47.93,4.2,2.2.27.47.22,1.02-.14,1.42-.3.34-.68.55-1.13.68h0Z"/>
      <path d="M58.38,15.05c-.12-.12-.24-.24-.36-.36-.65-.65-1.31-1.32-1.82-2.1-1.66-2.54-.43-5.07.56-7.1l.51.25c-1.18,2.42-1.98,4.44-.6,6.55.48.74,1.12,1.39,1.75,2.01.12.12.24.24.36.37l-.4.39h0Z"/>
    </g>
  </g>
</svg>