<?xml version="1.0" encoding="UTF-8"?>
<svg id="Layer_1" data-name="Layer 1" xmlns="http://www.w3.org/2000/svg" viewBox="0 0 33 27">
  <path d="M29.45,3.56c-.43-1.01-1.08-1.94-1.98-2.74-1.97-1.73-5.05-.48-6.45,1.44-.3.41-.55.86-.77,1.32h-3.36c-.73-1.23-1.8-2.2-3.2-2.69-1.84-.64-3.84-.43-5.59.7-.86.55-1.61,1.25-2.21,2.03l-5.88.02.71,8.85h3.46s-.02.1-.02.14l1.41,14.01c.02.18.17.31.35.31l22.38.04c.19,0,.35-.15.36-.34l.51-14.17h3.08l.77-8.94h-3.55ZM19.95,4.29c-.05.11-.09.23-.14.34l-1.23,3.4-1.06-3.07c-.08-.23-.17-.45-.27-.67h2.69ZM15.87,13.95c.35-.38.63-.77.92-1.18h.42c-.76,1.98-2.7,3.86-4.49,5.47l-.02-2.32c1.18-.37,2.28-1.03,3.17-1.97h0ZM9.16,7.88c1-1.74,2.84-2.76,4.87-2.78,2.67-.02,3.31,2.03,3.93,3.88.28.84-2.26,1.92-2.91,2.18-2.16.89-5.17.86-6.04-1.71-.17-.52-.13-1.1.15-1.57h0ZM25.29,9.58c-.53,1.12-1.58,1.72-2.84,1.79-1.84.11-3.48-1.94-3.25-2.33.57-.98,1.14-1.84,1.78-2.75.42-.61,1.12-1.07,1.86-1.2.79-.14,1.52.24,2.02.83.84,1,1.03,2.42.44,3.66h0ZM1.37,11.79l-.6-7.46h4.62c-1.34,2.1-1.79,4.74-1.04,7.2.03.09.06.17.09.25H1.37ZM6.23,26.26l-1.34-13.31h.03c.45.85,1.06,1.6,1.86,2.15,1.58,1.06,3.45,1.36,5.21,1.01l.03,2.78c-.47.42-.91.82-1.3,1.2.66.48,1.03.67,1.32.87l.05,5.32h-5.86s0,0,0,0ZM12.8,26.22l-.04-4.49c.15.22.32.51.54.91,2.01-.72,1.77.33,3.14.98.39-.17.69-.47.77-.9l.57-3.22-.64,6.67-4.34.06h0ZM27.94,26.3l-10.1-.02,1.05-11.07c.81,1.93,1.71,3.61,3.15,5.07.35.36.66.58,1.23.65.24-.42.39-.8.5-1.25.34-1.48,1.6-1.72,1.31-2.42-.08-.19-.34-.52-.53-.6-2.3-.96-4.13-1.47-5.03-3.96h.18c.5.46.94.91,1.46,1.29,1.78,1.3,4.09,1.25,5.77-.22.41-.36.79-.77,1.13-1.2h.36s-.49,13.73-.49,13.73h0ZM31.58,11.79h-2.96c1.39-2.22,1.87-5.04,1.09-7.53h2.52s-.65,7.53-.65,7.53Z" style="fill: #17353c;"/>
</svg>