<?xml version="1.0" encoding="UTF-8"?>
<svg id="Layer_1" data-name="Layer 1" xmlns="http://www.w3.org/2000/svg" xmlns:xlink="http://www.w3.org/1999/xlink" viewBox="0 0 35 43.13">
  <defs>
    <clipPath id="clippath">
      <rect y="8.13" width="35" height="35" style="fill: none;"/>
    </clipPath>
  </defs>
  <g style="clip-path: url(#clippath);">
    <g>
      <path d="M29.78,12.86c-4.86-4.36-12.15-5.16-17.41-4.33-2.72.5-5.23,1.75-7.26,3.63-2.03,1.87-3.49,4.28-4.2,6.95-1.63,5.22-1.14,10.87,1.34,15.74,3.11,5.83,11,8.84,18.29,8.08,17.88-1.87,17.02-23.11,9.25-30.06ZM30.46,36.98c-.36.61-.85.82-1.53,1.46-2.46,1.88-5.42,3.01-8.52,3.24-.44,0-8.46.79-14.06-4.2-.47-.33-.87-.74-1.18-1.22-.55-.66-1.03-1.36-1.46-2.1-2.25-4.49-2.67-9.68-1.17-14.47.83-2.79,2.45-5.28,4.65-7.18,1.58-1.25,3.44-2.08,5.43-2.42,1.95-.36,3.93-.45,5.91-.26,0,0,7.29,1.46,9.76,3.59,2.1,1.84,3.67,4.22,4.52,6.88.62,2.1,1.01,4.26,1.18,6.45.15,3.73-1.11,7.39-3.53,10.24Z" style="fill: #17353c;"/>
      <path d="M18.48,12.07s-.09,2.55-.77,2.55c-.22,0-.39-.12-.58-.36-.15-.38-.26-.78-.31-1.18-.03-.45,0-.91.1-1.36.15-.42.39-.61.61-.61.95-.06.92.66.95.96Z" style="fill: #17353c;"/>
      <path d="M6.34,25.14c.14,0,.28.06.38.16s.16.24.16.38c0,.19-.08.37-.21.51-.13.14-.31.22-.5.22-.4.05-.81.05-1.21,0-.42,0-.83-.13-1.27-.13l-.6-.13c-.15-.13-.24-.31-.28-.5s0-.39.1-.56c.41-.54,2.74-.06,3.43.06Z" style="fill: #17353c;"/>
      <path d="M11.87,13.97c.16.31.26.61.38.88.06.11.1.23.15.35.06.13.09.27.09.41,0,.07-.01.14-.04.21-.03.07-.07.13-.12.18-.05.05-.11.09-.18.12-.07.03-.14.04-.21.04-.36-.02-.7-.18-.95-.44-.19-.19-.36-.4-.52-.61-.15-.21-.29-.43-.42-.66-.11-.19-.2-.39-.29-.6-.03-.07-.04-.14-.04-.22s.01-.15.04-.22c.13-.66.53-.86,1.28-.55.16.15.19.1.34.28.2.26.37.55.51.85Z" style="fill: #17353c;"/>
      <path d="M7.29,18.53c.28.19.82.69,1.05.89.14.09.25.22.32.38.03.06.06.13.06.2,0,.07,0,.14-.02.21-.02.07-.06.13-.1.19-.05.05-.1.1-.17.13-.62.11-1.25.02-1.81-.26-.24-.14-.46-.29-.67-.47-.12,0-.36-.2-.54-.34-.06-.04-.12-.09-.16-.16-.04-.06-.07-.13-.09-.21-.19-.63,0-1.01.86-1.12q.22,0,.44.09c.29.13.57.29.83.47Z" style="fill: #17353c;"/>
      <path d="M18.65,39.31s-.09-2.57-.77-2.57c-.22,0-.39.12-.58.36-.16.38-.26.77-.31,1.18-.03.45,0,.91.1,1.36.15.42.38.61.61.61.95-.04.92-.66.95-.95Z" style="fill: #17353c;"/>
      <path d="M11.67,37.42c.16-.31.26-.61.38-.88.07-.11.12-.23.15-.35.04-.11.06-.23.06-.35,0-.08,0-.16-.03-.23-.03-.07-.07-.14-.13-.2-.06-.06-.12-.1-.2-.13-.07-.03-.15-.04-.23-.03-.36,0-.7.16-.95.42-.2.19-.38.39-.54.61-.15.21-.28.43-.41.66-.12.2-.2.41-.31.61-.03.07-.04.14-.04.22s.01.15.04.22c.15.64.52.85,1.28.54.16-.15.19-.1.34-.28.23-.26.42-.54.58-.85Z" style="fill: #17353c;"/>
      <path d="M7.09,32.84c.37-.27.72-.57,1.05-.89.12-.08.21-.18.28-.31.04-.06.06-.13.07-.21,0-.07,0-.15-.02-.22-.02-.07-.06-.13-.11-.19-.05-.06-.11-.1-.17-.13-.61-.11-1.24-.01-1.79.26-.23.1-.46.22-.67.36l-.55.38c-.06.04-.12.09-.16.16-.04.06-.07.13-.08.21-.19.63,0,1.01.85,1.12q.22,0,.44-.09c.31-.12.6-.28.88-.47Z" style="fill: #17353c;"/>
      <path d="M28.82,25.14c-.07,0-.14.01-.21.04-.07.03-.12.07-.17.12-.05.05-.09.11-.12.18-.03.07-.04.14-.04.21,0,.19.08.37.21.51.13.14.31.22.5.22.4.05.81.05,1.21,0,.42,0,.83-.13,1.27-.13l.6-.13c.14-.14.22-.31.24-.5.02-.19-.02-.38-.13-.55-.35-.55-2.67-.07-3.37.04Z" style="fill: #17353c;"/>
      <path d="M23.6,13.97c-.16.31-.26.61-.38.88-.06.11-.1.23-.15.35-.06.13-.09.27-.09.41,0,.07.01.14.04.21.03.07.07.13.12.18.05.05.11.09.18.12.07.03.14.04.21.04.36-.02.7-.18.95-.44.19-.19.36-.4.53-.61.15-.21.29-.43.42-.66.1-.19.2-.39.29-.6.03-.07.04-.14.04-.22s-.01-.15-.04-.22c-.13-.66-.52-.86-1.28-.55-.16.15-.19.1-.34.28-.2.26-.37.55-.51.85Z" style="fill: #17353c;"/>
      <path d="M28.13,18.53c-.28.19-.82.69-1.05.89-.12.08-.21.19-.28.32-.03.06-.06.13-.06.2,0,.07,0,.14.02.21.02.07.06.13.1.19.05.05.1.1.17.13.62.11,1.25.02,1.81-.26.23-.12.46-.26.67-.41.19-.12.36-.25.54-.38.06-.04.12-.09.16-.16.04-.06.07-.13.09-.21.19-.63,0-1.01-.86-1.12q-.22,0-.44.09c-.31.14-.6.31-.88.51Z" style="fill: #17353c;"/>
      <path d="M24.56,36.94c-.16-.31-.26-.61-.38-.88-.06-.11-.11-.23-.15-.35-.07-.12-.1-.27-.09-.41,0-.14.06-.28.16-.38.1-.1.24-.16.38-.16.36.02.7.18.95.44.2.19.38.39.54.61.15.21.29.43.41.66.12.19.2.39.31.6.03.07.04.14.04.22s-.01.15-.04.22c-.13.66-.52.86-1.28.55-.16-.15-.19-.1-.34-.28-.2-.26-.37-.55-.51-.85Z" style="fill: #17353c;"/>
      <path d="M28.92,32.3c-.28-.19-.82-.69-1.05-.89-.23-.2-.25-.22-.28-.32-.03-.06-.06-.13-.06-.2,0-.07,0-.14.02-.21.02-.07.06-.13.1-.19.05-.05.1-.1.17-.13.62-.11,1.25-.02,1.81.26.23.11.45.22.67.35.19.12.37.25.54.39.06.04.12.09.16.16.04.06.07.13.09.21.19.63,0,1.01-.86,1.11q-.22,0-.44-.07c-.3-.13-.6-.29-.88-.47Z" style="fill: #17353c;"/>
      <path d="M20.12,26.17c-.49-.64-1.02-1.25-1.57-1.82-.16-.17-.36-.3-.58-.38-.66-.07-1.33-.07-2,0-1.27,0-2.92.22-4.26.38-.06,0-.12.01-.17.03-.05.02-.1.06-.14.1-.04.04-.07.09-.09.15-.02.05-.03.11-.02.17.01.11.06.22.15.3.08.08.19.12.31.13,1.17,0,2.48.1,3.62.18.8,0,2.04.26,2.07.23l.32.39c.39.42.9,1.04,1.46,1.72,1.2,1.36,2.67,2.92,3.54,4.07.04.05.09.1.14.13.06.03.12.06.18.07.07,0,.13,0,.2-.01.06-.02.12-.05.18-.09.05-.04.1-.09.13-.14.03-.06.06-.12.07-.18,0-.06,0-.13-.01-.19-.02-.06-.04-.12-.08-.17-.79-1.4-2.23-3.53-3.43-5.06Z" style="fill: #17353c;"/>
    </g>
  </g>
  <path d="M17.84,1.47c.42-.37.72-.63.96-.81.24-.17.53-.29.96-.36.36-.1.66-.1.98.01.3.09.54.26.74.49.19.22.32.51.38.88.05.35.02.72-.14,1.09-.12.37-.3.66-.48.9-.18.25-.5.53-.9.88.34.09.76.21,1.23.35.48.14.83.44,1.13.88.59.87.45,1.7-.42,2.47-.37.33-.83.51-1.32.55-.49.04-.98-.01-1.45-.2-.45-.17-.88-.4-1.21-.68-.35-.3-.54-.61-.66-.9-.23.34-.44.65-.67.94-.23.29-.62.55-1.28.69-.45.14-.94.09-1.46-.11-.52-.19-.95-.47-1.27-.8-.33-.32-.53-.75-.59-1.22s.15-.88.57-1.25c.25-.22.42-.37.52-.46.1-.09.22-.15.29-.17.07-.02.17-.06.28-.08.12-.02.26-.1.48-.25-.34-.14-.6-.43-.79-.79-.16-.38-.26-.69-.28-.97,0-.49.08-.86.24-1.17.18-.29.41-.58.76-.89C14.83.15,15.31-.01,15.89,0c.58.01,1.03.22,1.38.62l.26.29s.09.1.11.12c.02.02.04.05.06.12.02.02.06.07.15.17v.14ZM16.43,5.5c.22.25.49.35.84.35.35,0,.68-.08.93-.25.29-.17.45-.39.51-.72.07-.32-.05-.65-.4-1.05-.19-.22-.47-.33-.8-.3-.35,0-.66.1-.9.27-.27.19-.45.39-.51.72-.07.32.03.63.33.97Z" style="fill: #17353c;"/>
</svg>